<svg width="130" height="48" viewBox="0 0 130 48" fill="none" xmlns="http://www.w3.org/2000/svg">
<path d="M20.6875 10C20.6875 15.9025 15.9025 20.6875 10 20.6875V27.8125H20.6875V38.5H27.8125C27.8125 32.5975 32.5975 27.8125 38.5 27.8125V20.6875H27.8125V10H20.6875Z" fill="#0066C8"/>
<path d="M49.5234 31V16.9082H52.4238L59.2402 26.2441L56.6914 24.877H58.3906V16.9082H61.8379V31H58.957L52.1113 21.5762L54.6699 22.9531H52.9609V31H49.5234ZM64.875 31V16.9082H74.5332V19.7891H68.459V22.5918H74.1719V25.248H68.459V28.1191H74.5332V31H64.875ZM83.4102 31.3516C82.1927 31.3516 81.1283 31.1335 80.2168 30.6973C79.3118 30.2611 78.6055 29.6523 78.0977 28.8711C77.5964 28.0833 77.3457 27.1589 77.3457 26.0977V16.9082H80.9395V25.7559C80.9395 26.3027 81.0339 26.7715 81.2227 27.1621C81.418 27.5527 81.6979 27.8555 82.0625 28.0703C82.4336 28.2786 82.8861 28.3828 83.4199 28.3828C83.9538 28.3828 84.4062 28.2786 84.7773 28.0703C85.1484 27.8555 85.4284 27.5527 85.6172 27.1621C85.806 26.7715 85.9004 26.3027 85.9004 25.7559V16.9082H89.4844V26.0977C89.4844 27.1523 89.2337 28.0736 88.7324 28.8613C88.2376 29.6491 87.5345 30.2611 86.623 30.6973C85.7181 31.1335 84.6471 31.3516 83.4102 31.3516ZM92.5312 31V16.9082H102.189V19.7891H96.1152V22.5918H101.828V25.248H96.1152V28.1191H102.189V31H92.5312ZM115.734 31.3516C114.517 31.3516 113.452 31.1335 112.541 30.6973C111.636 30.2611 110.93 29.6523 110.422 28.8711C109.921 28.0833 109.67 27.1589 109.67 26.0977V16.9082H113.264V25.7559C113.264 26.3027 113.358 26.7715 113.547 27.1621C113.742 27.5527 114.022 27.8555 114.387 28.0703C114.758 28.2786 115.21 28.3828 115.744 28.3828C116.278 28.3828 116.73 28.2786 117.102 28.0703C117.473 27.8555 117.753 27.5527 117.941 27.1621C118.13 26.7715 118.225 26.3027 118.225 25.7559V16.9082H121.809V26.0977C121.809 27.1523 121.558 28.0736 121.057 28.8613C120.562 29.6491 119.859 30.2611 118.947 30.6973C118.042 31.1335 116.971 31.3516 115.734 31.3516ZM124.855 31V16.9082H128.439V31H124.855Z" fill="white"/>
</svg>
